<svg width="155" height="118" viewBox="0 0 155 118" fill="none" xmlns="http://www.w3.org/2000/svg">
<path d="M142.083 62.1877V110.625C142.083 112.338 141.403 113.981 140.192 115.192C138.981 116.403 137.338 117.084 135.625 117.084H129.167C127.454 117.084 125.811 116.403 124.6 115.192C123.389 113.981 122.708 112.338 122.708 110.625V104.167H32.2917V110.625C32.2917 112.338 31.6112 113.981 30.4001 115.192C29.1889 116.403 27.5462 117.084 25.8333 117.084H19.375C17.6621 117.084 16.0194 116.403 14.8083 115.192C13.5971 113.981 12.9167 112.338 12.9167 110.625V62.1877L4.88896 60.1856C3.49237 59.8357 2.25272 59.0292 1.36694 57.8942C0.48116 56.7592 3.78486e-05 55.3608 0 53.921L0 49.271C0 48.4146 0.340215 47.5932 0.945801 46.9876C1.55139 46.382 2.37274 46.0418 3.22917 46.0418H15.3385L29.1465 9.21641C30.0696 6.75381 31.7224 4.63166 33.884 3.13365C36.0456 1.63565 38.613 0.833169 41.2429 0.833496H113.757C116.387 0.833169 118.954 1.63565 121.116 3.13365C123.278 4.63166 124.93 6.75381 125.854 9.21641L139.661 46.0418H151.771C152.627 46.0418 153.449 46.382 154.054 46.9876C154.66 47.5932 155 48.4146 155 49.271V53.921C155 55.3608 154.519 56.7592 153.633 57.8942C152.747 59.0292 151.508 59.8357 150.111 60.1856L142.083 62.1877ZM25.8333 71.8752V84.7918C25.8333 86.5047 26.5138 88.1474 27.7249 89.3586C28.9361 90.5697 30.5788 91.2502 32.2917 91.2502H53.249C53.8066 91.2493 54.3545 91.104 54.8393 90.8285C55.3241 90.553 55.7293 90.1566 56.0154 89.678C56.3016 89.1993 56.4589 88.6548 56.4721 88.0973C56.4852 87.5398 56.3538 86.9884 56.0906 86.4968C50.8917 76.7448 40.8038 71.8752 25.8333 71.8752ZM129.167 71.8752C114.203 71.8752 104.115 76.7512 98.9029 86.4968C98.6395 86.9889 98.5081 87.5409 98.5215 88.0989C98.535 88.6569 98.6929 89.2019 98.9798 89.6807C99.2667 90.1595 99.6728 90.5558 100.158 90.8309C100.644 91.1059 101.193 91.2504 101.751 91.2502H122.708C124.421 91.2502 126.064 90.5697 127.275 89.3586C128.486 88.1474 129.167 86.5047 129.167 84.7918V71.8752ZM38.75 13.7502L28.6685 44.001C28.3453 44.9714 28.2572 46.0047 28.4115 47.0157C28.5657 48.0268 28.9579 48.9868 29.5557 49.8167C30.1535 50.6466 30.9399 51.3227 31.8501 51.7892C32.7603 52.2557 33.7683 52.4994 34.791 52.5002H120.209C121.232 52.4994 122.24 52.2557 123.15 51.7892C124.06 51.3227 124.846 50.6466 125.444 49.8167C126.042 48.9868 126.434 48.0268 126.589 47.0157C126.743 46.0047 126.655 44.9714 126.331 44.001L116.25 13.7502H38.75Z" fill="white"/>
</svg>
