<svg width="114" height="129" viewBox="0 0 114 129" fill="none" xmlns="http://www.w3.org/2000/svg">
<path d="M59.8333 79.3242V91.69C54.4783 89.7967 48.7471 89.216 43.1211 89.9966C37.4951 90.7772 32.1386 92.8963 27.5013 96.1761C22.864 99.4558 19.0814 103.8 16.471 108.845C13.8607 113.889 12.4989 119.487 12.5 125.167L0.666666 125.161C0.664829 117.936 2.31695 110.806 5.49643 104.318C8.67591 97.8308 13.2984 92.157 19.0096 87.7319C24.7209 83.3069 31.3693 80.248 38.4455 78.7896C45.5217 77.3312 52.8378 77.512 59.8333 79.3183V79.3242ZM48 71.9165C28.3862 71.9165 12.5 56.0303 12.5 36.4165C12.5 16.8028 28.3862 0.916504 48 0.916504C67.6137 0.916504 83.5 16.8028 83.5 36.4165C83.5 56.0303 67.6137 71.9165 48 71.9165ZM48 60.0832C61.0758 60.0832 71.6667 49.4923 71.6667 36.4165C71.6667 23.3407 61.0758 12.7498 48 12.7498C34.9242 12.7498 24.3333 23.3407 24.3333 36.4165C24.3333 49.4923 34.9242 60.0832 48 60.0832ZM83.5 95.5832V74.8748L113.083 101.5L83.5 128.125V107.417H65.75V95.5832H83.5Z" fill="white"/>
</svg>
