<svg width="102" height="102" viewBox="0 0 102 102" fill="none" xmlns="http://www.w3.org/2000/svg">
<path d="M74.455 5.9158L66.835 13.5358C61.8135 11.4069 56.4141 10.3132 50.96 10.3202C28.5064 10.3202 10.32 28.5066 10.32 50.9602C10.32 73.4138 28.5064 91.6002 50.96 91.6002C73.4136 91.6002 91.6 73.4138 91.6 50.9602C91.6069 45.5061 90.5132 40.1066 88.3843 35.0852L96.0043 27.4652C99.796 34.7156 101.771 42.7781 101.76 50.9602C101.76 79.0018 79.0016 101.76 50.96 101.76C22.9184 101.76 0.159973 79.0018 0.159973 50.9602C0.159973 22.9186 22.9184 0.160156 50.96 0.160156C59.4334 0.160156 67.4243 2.24296 74.455 5.9158ZM83.2891 11.4479L90.4722 18.631L50.96 58.1433L43.7769 50.9602L83.2891 11.4479Z" fill="white"/>
</svg>
