<svg width="122" height="122" viewBox="0 0 122 122" fill="none" xmlns="http://www.w3.org/2000/svg">
<path d="M86.36 77.4445V112.354C86.3601 112.804 86.241 113.245 86.0147 113.633C85.7885 114.022 85.4633 114.343 85.0723 114.565C84.6813 114.786 84.2386 114.9 83.7892 114.895C83.3398 114.889 82.8999 114.765 82.5144 114.534L60.96 101.6L39.4056 114.534C39.0197 114.765 38.5794 114.889 38.1295 114.895C37.6797 114.9 37.2366 114.786 36.8455 114.563C36.4543 114.341 36.1292 114.019 35.9034 113.63C35.6775 113.241 35.559 112.799 35.56 112.349V77.4495C28.9872 72.1871 24.2112 65.0131 21.8921 56.9189C19.5729 48.8247 19.825 40.21 22.6136 32.2654C25.4022 24.3207 30.5895 17.4382 37.4588 12.5692C44.3281 7.70018 52.5401 5.08496 60.96 5.08496C69.3799 5.08496 77.5919 7.70018 84.4612 12.5692C91.3305 17.4382 96.5178 24.3207 99.3064 32.2654C102.095 40.21 102.347 48.8247 100.028 56.9189C97.7088 65.0131 92.9328 72.1871 86.36 77.4495V77.4445ZM60.96 76.1999C69.0438 76.1999 76.7965 72.9886 82.5126 67.2725C88.2287 61.5564 91.44 53.8037 91.44 45.7199C91.44 37.6361 88.2287 29.8834 82.5126 24.1673C76.7965 18.4511 69.0438 15.2399 60.96 15.2399C52.8762 15.2399 45.1235 18.4511 39.4074 24.1673C33.6913 29.8834 30.48 37.6361 30.48 45.7199C30.48 53.8037 33.6913 61.5564 39.4074 67.2725C45.1235 72.9886 52.8762 76.1999 60.96 76.1999ZM60.96 66.0399C55.5708 66.0399 50.4023 63.899 46.5916 60.0883C42.7809 56.2775 40.64 51.1091 40.64 45.7199C40.64 40.3307 42.7809 35.1622 46.5916 31.3515C50.4023 27.5407 55.5708 25.3999 60.96 25.3999C66.3492 25.3999 71.5177 27.5407 75.3284 31.3515C79.1392 35.1622 81.28 40.3307 81.28 45.7199C81.28 51.1091 79.1392 56.2775 75.3284 60.0883C71.5177 63.899 66.3492 66.0399 60.96 66.0399Z" fill="white"/>
</svg>
