<svg width="122" height="122" viewBox="0 0 122 122" fill="none" xmlns="http://www.w3.org/2000/svg">
<path d="M19.2176 14.3562L60.96 5.08008L102.702 14.3562C103.83 14.6069 104.839 15.2348 105.562 16.1362C106.286 17.0376 106.68 18.1586 106.68 19.3142V70.0482C106.68 75.0659 105.441 80.0059 103.073 84.4297C100.705 88.8536 97.2813 92.6244 93.1062 95.4076L60.96 116.84L28.8138 95.4076C24.6394 92.6249 21.2164 88.8549 18.8486 84.432C16.4807 80.0091 15.2412 75.0701 15.24 70.0533V19.3142C15.2402 18.1586 15.6344 17.0376 16.3575 16.1362C17.0807 15.2348 18.0896 14.6069 19.2176 14.3562ZM60.96 68.5801L75.8901 76.4287L73.0402 59.8069L85.1154 48.0315L68.4225 45.6032L60.96 30.4801L53.4924 45.6032L36.8046 48.0315L48.8798 59.8069L46.035 76.4287L60.96 68.5801Z" fill="white"/>
</svg>
