<svg width="24" height="24" viewBox="0 0 24 24" fill="none" xmlns="http://www.w3.org/2000/svg">
<path d="M11.9018 21.82C10.7296 21.82 9.56882 21.5892 8.48582 21.1406C7.40282 20.692 6.41878 20.0345 5.58989 19.2056C4.761 18.3767 4.10349 17.3926 3.6549 16.3096C3.2063 15.2266 2.97542 14.0659 2.97542 12.8937C2.97542 11.7214 3.2063 10.5607 3.6549 9.47769C4.10349 8.39469 4.761 7.41065 5.58989 6.58176C6.41878 5.75287 7.40282 5.09536 8.48582 4.64676C9.56882 4.19817 10.7296 3.96728 11.9018 3.96728C14.2692 3.96728 16.5397 4.90774 18.2137 6.58176C19.8877 8.25578 20.8282 10.5262 20.8282 12.8937C20.8282 15.2611 19.8877 17.5315 18.2137 19.2056C16.5397 20.8796 14.2692 21.82 11.9018 21.82V21.82ZM11.9018 19.8364C12.8135 19.8364 13.7163 19.6568 14.5587 19.3079C15.401 18.959 16.1664 18.4476 16.8111 17.8029C17.4557 17.1582 17.9671 16.3929 18.3161 15.5505C18.665 14.7082 18.8445 13.8054 18.8445 12.8937C18.8445 11.9819 18.665 11.0791 18.3161 10.2368C17.9671 9.39446 17.4557 8.6291 16.8111 7.98441C16.1664 7.33971 15.401 6.82831 14.5587 6.47941C13.7163 6.1305 12.8135 5.95092 11.9018 5.95092C10.0605 5.95092 8.29455 6.68239 6.99254 7.98441C5.69052 9.28642 4.95906 11.0523 4.95906 12.8937C4.95906 14.735 5.69052 16.5009 6.99254 17.8029C8.29455 19.1049 10.0605 19.8364 11.9018 19.8364V19.8364ZM12.8936 12.8937H15.8691V14.8773H10.91V7.93456H12.8936V12.8937ZM1.73267 6.23062L5.23875 2.72453L6.64218 4.12697L3.13411 7.63404L1.73267 6.23062ZM18.5639 2.72453L22.0709 6.23062L20.6685 7.63404L17.1614 4.12697L18.5648 2.72453H18.5639Z" fill="#FF435E"/>
</svg>
