<svg width="10" height="10" viewBox="0 0 10 10" fill="none" xmlns="http://www.w3.org/2000/svg">
<path d="M6.25004 1.25C6.48004 1.25 6.66671 1.43667 6.66671 1.66667V2.5H8.75004C8.98004 2.5 9.16671 2.68667 9.16671 2.91667V8.33333C9.16671 8.56333 8.98004 8.75 8.75004 8.75H1.25004C1.02004 8.75 0.833374 8.56333 0.833374 8.33333V2.91667C0.833374 2.68667 1.02004 2.5 1.25004 2.5H3.33337V1.66667C3.33337 1.43667 3.52004 1.25 3.75004 1.25H6.25004ZM3.33337 3.33333H2.50004V7.91667H3.33337V3.33333ZM7.50004 3.33333H6.66671V7.91667H7.50004V3.33333ZM5.83337 2.08333H4.16671V2.5H5.83337V2.08333Z" fill="white"/>
</svg>
