<svg width="10" height="10" viewBox="0 0 10 10" fill="none" xmlns="http://www.w3.org/2000/svg">
<path d="M6.24992 1.25C6.47992 1.25 6.66659 1.43667 6.66659 1.66667V2.5H8.74992C8.97992 2.5 9.16659 2.68667 9.16659 2.91667V8.33333C9.16659 8.56333 8.97992 8.75 8.74992 8.75H1.24992C1.01992 8.75 0.833252 8.56333 0.833252 8.33333V2.91667C0.833252 2.68667 1.01992 2.5 1.24992 2.5H3.33325V1.66667C3.33325 1.43667 3.51992 1.25 3.74992 1.25H6.24992ZM3.33325 3.33333H2.49992V7.91667H3.33325V3.33333ZM7.49992 3.33333H6.66659V7.91667H7.49992V3.33333ZM5.83325 2.08333H4.16659V2.5H5.83325V2.08333Z" fill="#FF435E"/>
</svg>
