<svg width="20" height="20" viewBox="0 0 20 20" fill="none" xmlns="http://www.w3.org/2000/svg">
<path d="M7.50001 0.833328V2.49999H12.5V0.833328H14.1667V2.49999H17.5C17.721 2.49999 17.933 2.58779 18.0893 2.74407C18.2455 2.90035 18.3333 3.11231 18.3333 3.33333V16.6667C18.3333 16.8877 18.2455 17.0996 18.0893 17.2559C17.933 17.4122 17.721 17.5 17.5 17.5H2.50001C2.27899 17.5 2.06703 17.4122 1.91075 17.2559C1.75447 17.0996 1.66667 16.8877 1.66667 16.6667V3.33333C1.66667 3.11231 1.75447 2.90035 1.91075 2.74407C2.06703 2.58779 2.27899 2.49999 2.50001 2.49999H5.83334V0.833328H7.50001ZM16.6667 6.66666H3.33334V15.8333H16.6667V6.66666ZM12.53 8.44666L13.7083 9.625L9.58334 13.75L6.63667 10.8033L7.81667 9.625L9.58417 11.3933L12.5308 8.44666H12.53Z" fill="#FF435E"/>
</svg>
