<svg width="11" height="11" viewBox="0 0 11 11" fill="none" xmlns="http://www.w3.org/2000/svg">
<path d="M8.70841 9.16665H2.29175V9.62498C2.29175 9.74654 2.24346 9.86312 2.15751 9.94907C2.07155 10.035 1.95497 10.0833 1.83341 10.0833H1.37508C1.25352 10.0833 1.13694 10.035 1.05099 9.94907C0.965037 9.86312 0.916748 9.74654 0.916748 9.62498V5.49998L2.06854 2.42823C2.13405 2.25346 2.25135 2.10286 2.40475 1.99655C2.55816 1.89024 2.74036 1.83329 2.927 1.83331H8.07316C8.25981 1.83329 8.44201 1.89024 8.59541 1.99655C8.74881 2.10286 8.86611 2.25346 8.93162 2.42823L10.0834 5.49998V9.62498C10.0834 9.74654 10.0351 9.86312 9.94917 9.94907C9.86322 10.035 9.74664 10.0833 9.62508 10.0833H9.16675C9.04519 10.0833 8.92861 10.035 8.84266 9.94907C8.7567 9.86312 8.70841 9.74654 8.70841 9.62498V9.16665ZM1.89575 5.49998H9.10441L8.07316 2.74998H2.927L1.89575 5.49998ZM2.97925 7.79165C3.16158 7.79165 3.33645 7.71921 3.46538 7.59028C3.59432 7.46135 3.66675 7.28648 3.66675 7.10415C3.66675 6.92181 3.59432 6.74694 3.46538 6.61801C3.33645 6.48908 3.16158 6.41665 2.97925 6.41665C2.79691 6.41665 2.62204 6.48908 2.49311 6.61801C2.36418 6.74694 2.29175 6.92181 2.29175 7.10415C2.29175 7.28648 2.36418 7.46135 2.49311 7.59028C2.62204 7.71921 2.79691 7.79165 2.97925 7.79165ZM8.02091 7.79165C8.20325 7.79165 8.37812 7.71921 8.50705 7.59028C8.63598 7.46135 8.70841 7.28648 8.70841 7.10415C8.70841 6.92181 8.63598 6.74694 8.50705 6.61801C8.37812 6.48908 8.20325 6.41665 8.02091 6.41665C7.83858 6.41665 7.66371 6.48908 7.53478 6.61801C7.40585 6.74694 7.33341 6.92181 7.33341 7.10415C7.33341 7.28648 7.40585 7.46135 7.53478 7.59028C7.66371 7.71921 7.83858 7.79165 8.02091 7.79165Z" fill="#FF435E"/>
</svg>
