<svg width="10" height="10" viewBox="0 0 10 10" fill="none" xmlns="http://www.w3.org/2000/svg">
<path d="M0.833374 9.16663C0.833374 8.28257 1.18456 7.43472 1.80968 6.8096C2.43481 6.18448 3.28265 5.83329 4.16671 5.83329C5.05076 5.83329 5.89861 6.18448 6.52373 6.8096C7.14885 7.43472 7.50004 8.28257 7.50004 9.16663H0.833374ZM4.16671 5.41663C2.78546 5.41663 1.66671 4.29788 1.66671 2.91663C1.66671 1.53538 2.78546 0.416626 4.16671 0.416626C5.54796 0.416626 6.66671 1.53538 6.66671 2.91663C6.66671 4.29788 5.54796 5.41663 4.16671 5.41663ZM7.23462 6.34704C7.87198 6.51085 8.44141 6.87156 8.86184 7.37781C9.28228 7.88405 9.5323 8.51003 9.57629 9.16663H8.33337C8.33337 8.07913 7.91671 7.08913 7.23462 6.34704ZM6.39171 5.39871C6.74087 5.08641 7.0201 4.70385 7.21111 4.2761C7.40211 3.84836 7.50057 3.38508 7.50004 2.91663C7.50093 2.34724 7.35529 1.7872 7.07712 1.29038C7.54906 1.3852 7.97359 1.64053 8.27856 2.01296C8.58354 2.38538 8.75014 2.85193 8.75004 3.33329C8.75015 3.63015 8.68681 3.92361 8.56425 4.19399C8.4417 4.46437 8.26276 4.70543 8.03944 4.90102C7.81612 5.0966 7.55357 5.24219 7.26939 5.32803C6.98521 5.41386 6.68596 5.43796 6.39171 5.39871Z" fill="white"/>
</svg>
