<svg width="10" height="10" viewBox="0 0 10 10" fill="none" xmlns="http://www.w3.org/2000/svg">
<path d="M0.833252 9.16669C0.833252 8.28263 1.18444 7.43479 1.80956 6.80966C2.43468 6.18454 3.28253 5.83335 4.16659 5.83335C5.05064 5.83335 5.89849 6.18454 6.52361 6.80966C7.14873 7.43479 7.49992 8.28263 7.49992 9.16669H0.833252ZM4.16659 5.41669C2.78534 5.41669 1.66659 4.29794 1.66659 2.91669C1.66659 1.53544 2.78534 0.416687 4.16659 0.416687C5.54784 0.416687 6.66659 1.53544 6.66659 2.91669C6.66659 4.29794 5.54784 5.41669 4.16659 5.41669ZM7.2345 6.3471C7.87185 6.51092 8.44128 6.87162 8.86172 7.37787C9.28216 7.88411 9.53217 8.51009 9.57617 9.16669H8.33325C8.33325 8.07919 7.91659 7.08919 7.2345 6.3471ZM6.39159 5.39877C6.74075 5.08647 7.01998 4.70391 7.21099 4.27616C7.40199 3.84842 7.50045 3.38514 7.49992 2.91669C7.5008 2.3473 7.35516 1.78726 7.077 1.29044C7.54893 1.38527 7.97346 1.64059 8.27844 2.01302C8.58342 2.38545 8.75001 2.85199 8.74992 3.33335C8.75003 3.63021 8.68669 3.92367 8.56413 4.19405C8.44158 4.46443 8.26264 4.70549 8.03932 4.90108C7.816 5.09666 7.55345 5.24225 7.26927 5.32809C6.98509 5.41392 6.68584 5.43802 6.39159 5.39877Z" fill="#FF435E"/>
</svg>
