<svg width="26" height="26" viewBox="0 0 26 26" fill="none" xmlns="http://www.w3.org/2000/svg">
<path d="M13 25.7053L6.10567 18.811C4.74212 17.4474 3.81354 15.7101 3.43734 13.8188C3.06114 11.9275 3.25423 9.96713 3.99219 8.18556C4.73015 6.40399 5.97983 4.88125 7.58321 3.80991C9.18658 2.73858 11.0716 2.16675 13 2.16675C14.9284 2.16675 16.8134 2.73858 18.4168 3.80991C20.0202 4.88125 21.2699 6.40399 22.0078 8.18556C22.7458 9.96713 22.9389 11.9275 22.5627 13.8188C22.1865 15.7101 21.2579 17.4474 19.8943 18.811L13 25.7053ZM18.3625 17.2792C19.423 16.2186 20.1451 14.8674 20.4377 13.3964C20.7302 11.9254 20.58 10.4006 20.006 9.01502C19.432 7.62939 18.4601 6.44508 17.213 5.61185C15.9659 4.77862 14.4998 4.33388 13 4.33388C11.5002 4.33388 10.0341 4.77862 8.78701 5.61185C7.53995 6.44508 6.56798 7.62939 5.99399 9.01502C5.42 10.4006 5.26978 11.9254 5.56233 13.3964C5.85487 14.8674 6.57703 16.2186 7.6375 17.2792L13 22.6417L18.3625 17.2792V17.2792ZM13 14.0833C12.4254 14.0833 11.8743 13.8551 11.4679 13.4487C11.0616 13.0424 10.8333 12.4913 10.8333 11.9167C10.8333 11.342 11.0616 10.7909 11.4679 10.3846C11.8743 9.97827 12.4254 9.75 13 9.75C13.5746 9.75 14.1257 9.97827 14.5321 10.3846C14.9384 10.7909 15.1667 11.342 15.1667 11.9167C15.1667 12.4913 14.9384 13.0424 14.5321 13.4487C14.1257 13.8551 13.5746 14.0833 13 14.0833Z" fill="#FF435E"/>
</svg>
