<svg width="10" height="10" viewBox="0 0 10 10" fill="none" xmlns="http://www.w3.org/2000/svg">
<path d="M4.99992 0.833313C7.30117 0.833313 9.16659 2.69873 9.16659 4.99998C9.16659 7.30123 7.30117 9.16665 4.99992 9.16665C2.69867 9.16665 0.833252 7.30123 0.833252 4.99998C0.833252 2.69873 2.69867 0.833313 4.99992 0.833313ZM3.33325 5.41665L1.69242 5.41706C1.78525 6.15132 2.11968 6.83384 2.64305 7.35713C3.16642 7.88042 3.84898 8.21476 4.58325 8.30748V6.66665C4.25173 6.66665 3.93379 6.53495 3.69937 6.30053C3.46495 6.06611 3.33325 5.74817 3.33325 5.41665ZM8.30742 5.41706L6.66659 5.41665C6.66659 5.74817 6.53489 6.06611 6.30047 6.30053C6.06605 6.53495 5.74811 6.66665 5.41659 6.66665L5.417 8.30748C6.1512 8.21467 6.83367 7.8803 7.35695 7.35701C7.88024 6.83373 8.21461 6.15126 8.30742 5.41706ZM5.83325 4.99998H4.16659V5.41665C4.16659 5.52715 4.21048 5.63313 4.28862 5.71127C4.36676 5.78941 4.47275 5.83331 4.58325 5.83331H5.41659C5.52709 5.83331 5.63307 5.78941 5.71121 5.71127C5.78935 5.63313 5.83325 5.52715 5.83325 5.41665V4.99998ZM4.99992 1.66665C4.188 1.66666 3.40399 1.96297 2.79502 2.49998C2.18606 3.03699 1.794 3.77777 1.69242 4.58331H3.33325C3.33325 4.47281 3.37715 4.36683 3.45529 4.28869C3.53343 4.21055 3.63941 4.16665 3.74992 4.16665H6.24992C6.36043 4.16665 6.46641 4.21055 6.54455 4.28869C6.62269 4.36683 6.66659 4.47281 6.66659 4.58331H8.30742C8.20584 3.77777 7.81378 3.03699 7.20481 2.49998C6.59585 1.96297 5.81184 1.66666 4.99992 1.66665Z" fill="#FF435E"/>
</svg>
