<svg width="12" height="12" viewBox="0 0 12 12" fill="none" xmlns="http://www.w3.org/2000/svg">
<path d="M5.99996 11.8333C5.31052 11.8333 4.62783 11.6975 3.99087 11.4337C3.35391 11.1699 2.77516 10.7832 2.28765 10.2956C1.80014 9.80814 1.41343 9.22938 1.14959 8.59242C0.885755 7.95546 0.74996 7.27277 0.74996 6.58333C0.74996 5.89389 0.885755 5.21121 1.14959 4.57425C1.41343 3.93729 1.80014 3.35853 2.28765 2.87102C2.77516 2.38352 3.35391 1.9968 3.99087 1.73297C4.62783 1.46913 5.31052 1.33333 5.99996 1.33333C7.39235 1.33333 8.72771 1.88646 9.71227 2.87102C10.6968 3.85559 11.25 5.19095 11.25 6.58333C11.25 7.97572 10.6968 9.31108 9.71227 10.2956C8.72771 11.2802 7.39235 11.8333 5.99996 11.8333ZM5.99996 10.6667C6.53619 10.6667 7.06717 10.561 7.56258 10.3558C8.058 10.1506 8.50814 9.84986 8.88731 9.47069C9.26649 9.09151 9.56726 8.64137 9.77247 8.14596C9.97768 7.65055 10.0833 7.11956 10.0833 6.58333C10.0833 6.0471 9.97768 5.51612 9.77247 5.02071C9.56726 4.5253 9.26649 4.07515 8.88731 3.69598C8.50814 3.31681 8.058 3.01603 7.56258 2.81083C7.06717 2.60562 6.53619 2.5 5.99996 2.5C4.91699 2.5 3.87838 2.93021 3.11261 3.69598C2.34683 4.46175 1.91663 5.50037 1.91663 6.58333C1.91663 7.6663 2.34683 8.70491 3.11261 9.47069C3.87838 10.2365 4.91699 10.6667 5.99996 10.6667ZM6.58329 6.58333H8.33329V7.75H5.41663V3.66667H6.58329V6.58333ZM0.019043 2.6645L2.08113 0.602417L2.90654 1.42725L0.843293 3.48992L0.019043 2.6645ZM9.91821 0.602417L11.9809 2.6645L11.156 3.48992L9.09338 1.42725L9.91879 0.602417H9.91821Z" fill="#07820C"/>
</svg>
