<svg width="113" height="26" viewBox="0 0 113 26" fill="none" xmlns="http://www.w3.org/2000/svg">
<path d="M1.98242 7.58789H5.71484V9H0.224609V0.46875H1.98242V7.58789ZM9.53516 9.11719C8.60547 9.11719 7.84766 8.83203 7.26172 8.26172C6.67969 7.69141 6.38867 6.93164 6.38867 5.98242V5.81836C6.38867 5.18164 6.51172 4.61328 6.75781 4.11328C7.00391 3.60938 7.35156 3.22266 7.80078 2.95312C8.25391 2.67969 8.76953 2.54297 9.34766 2.54297C10.2148 2.54297 10.8965 2.81641 11.3926 3.36328C11.8926 3.91016 12.1426 4.68555 12.1426 5.68945V6.38086H8.10547C8.16016 6.79492 8.32422 7.12695 8.59766 7.37695C8.875 7.62695 9.22461 7.75195 9.64648 7.75195C10.2988 7.75195 10.8086 7.51562 11.1758 7.04297L12.0078 7.97461C11.7539 8.33398 11.4102 8.61523 10.9766 8.81836C10.543 9.01758 10.0625 9.11719 9.53516 9.11719ZM9.3418 3.91406C9.00586 3.91406 8.73242 4.02734 8.52148 4.25391C8.31445 4.48047 8.18164 4.80469 8.12305 5.22656H10.4785V5.0918C10.4707 4.7168 10.3691 4.42773 10.1738 4.22461C9.97852 4.01758 9.70117 3.91406 9.3418 3.91406ZM14.6973 2.66016L14.75 3.36914C15.1992 2.81836 15.8066 2.54297 16.5723 2.54297C17.3887 2.54297 17.9492 2.86523 18.2539 3.50977C18.6992 2.86523 19.334 2.54297 20.1582 2.54297C20.8457 2.54297 21.3574 2.74414 21.6934 3.14648C22.0293 3.54492 22.1973 4.14648 22.1973 4.95117V9H20.498V4.95703C20.498 4.59766 20.4277 4.33594 20.2871 4.17188C20.1465 4.00391 19.8984 3.91992 19.543 3.91992C19.0352 3.91992 18.6836 4.16211 18.4883 4.64648L18.4941 9H16.8008V4.96289C16.8008 4.5957 16.7285 4.33008 16.584 4.16602C16.4395 4.00195 16.1934 3.91992 15.8457 3.91992C15.3652 3.91992 15.0176 4.11914 14.8027 4.51758V9H13.1094V2.66016H14.6973ZM29.2168 5.88867C29.2168 6.9043 29 7.69727 28.5664 8.26758C28.1328 8.83398 27.5273 9.11719 26.75 9.11719C26.0625 9.11719 25.5137 8.85352 25.1035 8.32617L25.0273 9H23.5039V0H25.1973V3.22852C25.5879 2.77148 26.1016 2.54297 26.7383 2.54297C27.5117 2.54297 28.1172 2.82812 28.5547 3.39844C28.9961 3.96484 29.2168 4.76367 29.2168 5.79492V5.88867ZM27.5234 5.76562C27.5234 5.125 27.4219 4.6582 27.2188 4.36523C27.0156 4.06836 26.7129 3.91992 26.3105 3.91992C25.7715 3.91992 25.4004 4.14062 25.1973 4.58203V7.08398C25.4043 7.5293 25.7793 7.75195 26.3223 7.75195C26.8691 7.75195 27.2285 7.48242 27.4004 6.94336C27.4824 6.68555 27.5234 6.29297 27.5234 5.76562ZM33.9395 9C33.8613 8.84766 33.8047 8.6582 33.7695 8.43164C33.3594 8.88867 32.8262 9.11719 32.1699 9.11719C31.5488 9.11719 31.0332 8.9375 30.623 8.57812C30.2168 8.21875 30.0137 7.76562 30.0137 7.21875C30.0137 6.54688 30.2617 6.03125 30.7578 5.67188C31.2578 5.3125 31.9785 5.13086 32.9199 5.12695H33.6992V4.76367C33.6992 4.4707 33.623 4.23633 33.4707 4.06055C33.3223 3.88477 33.0859 3.79688 32.7617 3.79688C32.4766 3.79688 32.252 3.86523 32.0879 4.00195C31.9277 4.13867 31.8477 4.32617 31.8477 4.56445H30.1543C30.1543 4.19727 30.2676 3.85742 30.4941 3.54492C30.7207 3.23242 31.041 2.98828 31.4551 2.8125C31.8691 2.63281 32.334 2.54297 32.8496 2.54297C33.6309 2.54297 34.25 2.74023 34.707 3.13477C35.168 3.52539 35.3984 4.07617 35.3984 4.78711V7.53516C35.4023 8.13672 35.4863 8.5918 35.6504 8.90039V9H33.9395ZM32.5391 7.82227C32.7891 7.82227 33.0195 7.76758 33.2305 7.6582C33.4414 7.54492 33.5977 7.39453 33.6992 7.20703V6.11719H33.0664C32.2188 6.11719 31.7676 6.41016 31.7129 6.99609L31.707 7.0957C31.707 7.30664 31.7812 7.48047 31.9297 7.61719C32.0781 7.75391 32.2812 7.82227 32.5391 7.82227ZM36.4531 5.7832C36.4531 4.81055 36.6836 4.02734 37.1445 3.43359C37.6094 2.83984 38.2344 2.54297 39.0195 2.54297C39.7148 2.54297 40.2559 2.78125 40.6426 3.25781L40.7129 2.66016H42.248V8.78906C42.248 9.34375 42.1211 9.82617 41.8672 10.2363C41.6172 10.6465 41.2637 10.959 40.8066 11.1738C40.3496 11.3887 39.8145 11.4961 39.2012 11.4961C38.7363 11.4961 38.2832 11.4023 37.8418 11.2148C37.4004 11.0312 37.0664 10.793 36.8398 10.5L37.5898 9.46875C38.0117 9.94141 38.5234 10.1777 39.125 10.1777C39.5742 10.1777 39.9238 10.0566 40.1738 9.81445C40.4238 9.57617 40.5488 9.23633 40.5488 8.79492V8.45508C40.1582 8.89648 39.6445 9.11719 39.0078 9.11719C38.2461 9.11719 37.6289 8.82031 37.1562 8.22656C36.6875 7.62891 36.4531 6.83789 36.4531 5.85352V5.7832ZM38.1465 5.90625C38.1465 6.48047 38.2617 6.93164 38.4922 7.25977C38.7227 7.58398 39.0391 7.74609 39.4414 7.74609C39.957 7.74609 40.3262 7.55273 40.5488 7.16602V4.5C40.3223 4.11328 39.957 3.91992 39.4531 3.91992C39.0469 3.91992 38.7266 4.08594 38.4922 4.41797C38.2617 4.75 38.1465 5.24609 38.1465 5.90625ZM47.2285 9C47.1504 8.84766 47.0938 8.6582 47.0586 8.43164C46.6484 8.88867 46.1152 9.11719 45.459 9.11719C44.8379 9.11719 44.3223 8.9375 43.9121 8.57812C43.5059 8.21875 43.3027 7.76562 43.3027 7.21875C43.3027 6.54688 43.5508 6.03125 44.0469 5.67188C44.5469 5.3125 45.2676 5.13086 46.209 5.12695H46.9883V4.76367C46.9883 4.4707 46.9121 4.23633 46.7598 4.06055C46.6113 3.88477 46.375 3.79688 46.0508 3.79688C45.7656 3.79688 45.541 3.86523 45.377 4.00195C45.2168 4.13867 45.1367 4.32617 45.1367 4.56445H43.4434C43.4434 4.19727 43.5566 3.85742 43.7832 3.54492C44.0098 3.23242 44.3301 2.98828 44.7441 2.8125C45.1582 2.63281 45.623 2.54297 46.1387 2.54297C46.9199 2.54297 47.5391 2.74023 47.9961 3.13477C48.457 3.52539 48.6875 4.07617 48.6875 4.78711V7.53516C48.6914 8.13672 48.7754 8.5918 48.9395 8.90039V9H47.2285ZM45.8281 7.82227C46.0781 7.82227 46.3086 7.76758 46.5195 7.6582C46.7305 7.54492 46.8867 7.39453 46.9883 7.20703V6.11719H46.3555C45.5078 6.11719 45.0566 6.41016 45.002 6.99609L44.9961 7.0957C44.9961 7.30664 45.0703 7.48047 45.2188 7.61719C45.3672 7.75391 45.5703 7.82227 45.8281 7.82227ZM54.8457 5.99414V9H53.0879V0.46875H56.416C57.0566 0.46875 57.6191 0.585938 58.1035 0.820312C58.5918 1.05469 58.9668 1.38867 59.2285 1.82227C59.4902 2.25195 59.6211 2.74219 59.6211 3.29297C59.6211 4.12891 59.334 4.78906 58.7598 5.27344C58.1895 5.75391 57.3984 5.99414 56.3867 5.99414H54.8457ZM54.8457 4.57031H56.416C56.8809 4.57031 57.2344 4.46094 57.4766 4.24219C57.7227 4.02344 57.8457 3.71094 57.8457 3.30469C57.8457 2.88672 57.7227 2.54883 57.4766 2.29102C57.2305 2.0332 56.8906 1.90039 56.457 1.89258H54.8457V4.57031ZM63.5586 9.11719C62.6289 9.11719 61.8711 8.83203 61.2852 8.26172C60.7031 7.69141 60.4121 6.93164 60.4121 5.98242V5.81836C60.4121 5.18164 60.5352 4.61328 60.7812 4.11328C61.0273 3.60938 61.375 3.22266 61.8242 2.95312C62.2773 2.67969 62.793 2.54297 63.3711 2.54297C64.2383 2.54297 64.9199 2.81641 65.416 3.36328C65.916 3.91016 66.166 4.68555 66.166 5.68945V6.38086H62.1289C62.1836 6.79492 62.3477 7.12695 62.6211 7.37695C62.8984 7.62695 63.248 7.75195 63.6699 7.75195C64.3223 7.75195 64.832 7.51562 65.1992 7.04297L66.0312 7.97461C65.7773 8.33398 65.4336 8.61523 65 8.81836C64.5664 9.01758 64.0859 9.11719 63.5586 9.11719ZM63.3652 3.91406C63.0293 3.91406 62.7559 4.02734 62.5449 4.25391C62.3379 4.48047 62.2051 4.80469 62.1465 5.22656H64.502V5.0918C64.4941 4.7168 64.3926 4.42773 64.1973 4.22461C64.002 4.01758 63.7246 3.91406 63.3652 3.91406ZM68.6914 2.66016L68.7441 3.39258C69.1973 2.82617 69.8047 2.54297 70.5664 2.54297C71.2383 2.54297 71.7383 2.74023 72.0664 3.13477C72.3945 3.5293 72.5625 4.11914 72.5703 4.9043V9H70.877V4.94531C70.877 4.58594 70.7988 4.32617 70.6426 4.16602C70.4863 4.00195 70.2266 3.91992 69.8633 3.91992C69.3867 3.91992 69.0293 4.12305 68.791 4.5293V9H67.0977V2.66016H68.6914ZM73.6133 5.7832C73.6133 4.81055 73.8438 4.02734 74.3047 3.43359C74.7695 2.83984 75.3945 2.54297 76.1797 2.54297C76.875 2.54297 77.416 2.78125 77.8027 3.25781L77.873 2.66016H79.4082V8.78906C79.4082 9.34375 79.2812 9.82617 79.0273 10.2363C78.7773 10.6465 78.4238 10.959 77.9668 11.1738C77.5098 11.3887 76.9746 11.4961 76.3613 11.4961C75.8965 11.4961 75.4434 11.4023 75.002 11.2148C74.5605 11.0312 74.2266 10.793 74 10.5L74.75 9.46875C75.1719 9.94141 75.6836 10.1777 76.2852 10.1777C76.7344 10.1777 77.084 10.0566 77.334 9.81445C77.584 9.57617 77.709 9.23633 77.709 8.79492V8.45508C77.3184 8.89648 76.8047 9.11719 76.168 9.11719C75.4062 9.11719 74.7891 8.82031 74.3164 8.22656C73.8477 7.62891 73.6133 6.83789 73.6133 5.85352V5.7832ZM75.3066 5.90625C75.3066 6.48047 75.4219 6.93164 75.6523 7.25977C75.8828 7.58398 76.1992 7.74609 76.6016 7.74609C77.1172 7.74609 77.4863 7.55273 77.709 7.16602V4.5C77.4824 4.11328 77.1172 3.91992 76.6133 3.91992C76.207 3.91992 75.8867 4.08594 75.6523 4.41797C75.4219 4.75 75.3066 5.24609 75.3066 5.90625ZM84.5117 8.35547C84.0938 8.86328 83.5156 9.11719 82.7773 9.11719C82.0977 9.11719 81.5781 8.92188 81.2188 8.53125C80.8633 8.14062 80.6816 7.56836 80.6738 6.81445V2.66016H82.3672V6.75586C82.3672 7.41602 82.668 7.74609 83.2695 7.74609C83.8438 7.74609 84.2383 7.54688 84.4531 7.14844V2.66016H86.1523V9H84.5586L84.5117 8.35547ZM90.8633 7.24805C90.8633 7.04102 90.7598 6.87891 90.5527 6.76172C90.3496 6.64062 90.0215 6.5332 89.5684 6.43945C88.0605 6.12305 87.3066 5.48242 87.3066 4.51758C87.3066 3.95508 87.5391 3.48633 88.0039 3.11133C88.4727 2.73242 89.084 2.54297 89.8379 2.54297C90.6426 2.54297 91.2852 2.73242 91.7656 3.11133C92.25 3.49023 92.4922 3.98242 92.4922 4.58789H90.7988C90.7988 4.3457 90.7207 4.14648 90.5645 3.99023C90.4082 3.83008 90.1641 3.75 89.832 3.75C89.5469 3.75 89.3262 3.81445 89.1699 3.94336C89.0137 4.07227 88.9355 4.23633 88.9355 4.43555C88.9355 4.62305 89.0234 4.77539 89.1992 4.89258C89.3789 5.00586 89.6797 5.10547 90.1016 5.19141C90.5234 5.27344 90.8789 5.36719 91.168 5.47266C92.0625 5.80078 92.5098 6.36914 92.5098 7.17773C92.5098 7.75586 92.2617 8.22461 91.7656 8.58398C91.2695 8.93945 90.6289 9.11719 89.8438 9.11719C89.3125 9.11719 88.8398 9.02344 88.4258 8.83594C88.0156 8.64453 87.6934 8.38477 87.459 8.05664C87.2246 7.72461 87.1074 7.36719 87.1074 6.98438H88.7129C88.7285 7.28516 88.8398 7.51562 89.0469 7.67578C89.2539 7.83594 89.5312 7.91602 89.8789 7.91602C90.2031 7.91602 90.4473 7.85547 90.6113 7.73438C90.7793 7.60938 90.8633 7.44727 90.8633 7.24805ZM97.2793 9C97.2012 8.84766 97.1445 8.6582 97.1094 8.43164C96.6992 8.88867 96.166 9.11719 95.5098 9.11719C94.8887 9.11719 94.373 8.9375 93.9629 8.57812C93.5566 8.21875 93.3535 7.76562 93.3535 7.21875C93.3535 6.54688 93.6016 6.03125 94.0977 5.67188C94.5977 5.3125 95.3184 5.13086 96.2598 5.12695H97.0391V4.76367C97.0391 4.4707 96.9629 4.23633 96.8105 4.06055C96.6621 3.88477 96.4258 3.79688 96.1016 3.79688C95.8164 3.79688 95.5918 3.86523 95.4277 4.00195C95.2676 4.13867 95.1875 4.32617 95.1875 4.56445H93.4941C93.4941 4.19727 93.6074 3.85742 93.834 3.54492C94.0605 3.23242 94.3809 2.98828 94.7949 2.8125C95.209 2.63281 95.6738 2.54297 96.1895 2.54297C96.9707 2.54297 97.5898 2.74023 98.0469 3.13477C98.5078 3.52539 98.7383 4.07617 98.7383 4.78711V7.53516C98.7422 8.13672 98.8262 8.5918 98.9902 8.90039V9H97.2793ZM95.8789 7.82227C96.1289 7.82227 96.3594 7.76758 96.5703 7.6582C96.7812 7.54492 96.9375 7.39453 97.0391 7.20703V6.11719H96.4062C95.5586 6.11719 95.1074 6.41016 95.0527 6.99609L95.0469 7.0957C95.0469 7.30664 95.1211 7.48047 95.2695 7.61719C95.418 7.75391 95.6211 7.82227 95.8789 7.82227ZM101.691 3.35156C102.141 2.8125 102.705 2.54297 103.385 2.54297C104.76 2.54297 105.457 3.3418 105.477 4.93945V9H103.783V4.98633C103.783 4.62305 103.705 4.35547 103.549 4.18359C103.393 4.00781 103.133 3.91992 102.77 3.91992C102.273 3.91992 101.914 4.11133 101.691 4.49414V9H99.998V0H101.691V3.35156ZM110.428 9C110.35 8.84766 110.293 8.6582 110.258 8.43164C109.848 8.88867 109.314 9.11719 108.658 9.11719C108.037 9.11719 107.521 8.9375 107.111 8.57812C106.705 8.21875 106.502 7.76562 106.502 7.21875C106.502 6.54688 106.75 6.03125 107.246 5.67188C107.746 5.3125 108.467 5.13086 109.408 5.12695H110.188V4.76367C110.188 4.4707 110.111 4.23633 109.959 4.06055C109.811 3.88477 109.574 3.79688 109.25 3.79688C108.965 3.79688 108.74 3.86523 108.576 4.00195C108.416 4.13867 108.336 4.32617 108.336 4.56445H106.643C106.643 4.19727 106.756 3.85742 106.982 3.54492C107.209 3.23242 107.529 2.98828 107.943 2.8125C108.357 2.63281 108.822 2.54297 109.338 2.54297C110.119 2.54297 110.738 2.74023 111.195 3.13477C111.656 3.52539 111.887 4.07617 111.887 4.78711V7.53516C111.891 8.13672 111.975 8.5918 112.139 8.90039V9H110.428ZM109.027 7.82227C109.277 7.82227 109.508 7.76758 109.719 7.6582C109.93 7.54492 110.086 7.39453 110.188 7.20703V6.11719H109.555C108.707 6.11719 108.256 6.41016 108.201 6.99609L108.195 7.0957C108.195 7.30664 108.27 7.48047 108.418 7.61719C108.566 7.75391 108.77 7.82227 109.027 7.82227ZM3.72852 19.877H2.32812V23H0.570312V14.4688H3.74023C4.74805 14.4688 5.52539 14.6934 6.07227 15.1426C6.61914 15.5918 6.89258 16.2266 6.89258 17.0469C6.89258 17.6289 6.76562 18.1152 6.51172 18.5059C6.26172 18.8926 5.88086 19.2012 5.36914 19.4316L7.21484 22.918V23H5.32812L3.72852 19.877ZM2.32812 18.4531H3.74609C4.1875 18.4531 4.5293 18.3418 4.77148 18.1191C5.01367 17.8926 5.13477 17.582 5.13477 17.1875C5.13477 16.7852 5.01953 16.4688 4.78906 16.2383C4.5625 16.0078 4.21289 15.8926 3.74023 15.8926H2.32812V18.4531ZM11.041 23.1172C10.1113 23.1172 9.35352 22.832 8.76758 22.2617C8.18555 21.6914 7.89453 20.9316 7.89453 19.9824V19.8184C7.89453 19.1816 8.01758 18.6133 8.26367 18.1133C8.50977 17.6094 8.85742 17.2227 9.30664 16.9531C9.75977 16.6797 10.2754 16.543 10.8535 16.543C11.7207 16.543 12.4023 16.8164 12.8984 17.3633C13.3984 17.9102 13.6484 18.6855 13.6484 19.6895V20.3809H9.61133C9.66602 20.7949 9.83008 21.127 10.1035 21.377C10.3809 21.627 10.7305 21.752 11.1523 21.752C11.8047 21.752 12.3145 21.5156 12.6816 21.043L13.5137 21.9746C13.2598 22.334 12.916 22.6152 12.4824 22.8184C12.0488 23.0176 11.5684 23.1172 11.041 23.1172ZM10.8477 17.9141C10.5117 17.9141 10.2383 18.0273 10.0273 18.2539C9.82031 18.4805 9.6875 18.8047 9.62891 19.2266H11.9844V19.0918C11.9766 18.7168 11.875 18.4277 11.6797 18.2246C11.4844 18.0176 11.207 17.9141 10.8477 17.9141ZM16.1738 16.6602L16.2266 17.3926C16.6797 16.8262 17.2871 16.543 18.0488 16.543C18.7207 16.543 19.2207 16.7402 19.5488 17.1348C19.877 17.5293 20.0449 18.1191 20.0527 18.9043V23H18.3594V18.9453C18.3594 18.5859 18.2812 18.3262 18.125 18.166C17.9688 18.002 17.709 17.9199 17.3457 17.9199C16.8691 17.9199 16.5117 18.123 16.2734 18.5293V23H14.5801V16.6602H16.1738ZM23.3691 15.1016V16.6602H24.4531V17.9023H23.3691V21.0664C23.3691 21.3008 23.4141 21.4688 23.5039 21.5703C23.5938 21.6719 23.7656 21.7227 24.0195 21.7227C24.207 21.7227 24.373 21.709 24.5176 21.6816V22.9648C24.1855 23.0664 23.8438 23.1172 23.4922 23.1172C22.3047 23.1172 21.6992 22.5176 21.6758 21.3184V17.9023H20.75V16.6602H21.6758V15.1016H23.3691ZM29.0703 23C28.9922 22.8477 28.9355 22.6582 28.9004 22.4316C28.4902 22.8887 27.957 23.1172 27.3008 23.1172C26.6797 23.1172 26.1641 22.9375 25.7539 22.5781C25.3477 22.2188 25.1445 21.7656 25.1445 21.2188C25.1445 20.5469 25.3926 20.0312 25.8887 19.6719C26.3887 19.3125 27.1094 19.1309 28.0508 19.127H28.8301V18.7637C28.8301 18.4707 28.7539 18.2363 28.6016 18.0605C28.4531 17.8848 28.2168 17.7969 27.8926 17.7969C27.6074 17.7969 27.3828 17.8652 27.2188 18.002C27.0586 18.1387 26.9785 18.3262 26.9785 18.5645H25.2852C25.2852 18.1973 25.3984 17.8574 25.625 17.5449C25.8516 17.2324 26.1719 16.9883 26.5859 16.8125C27 16.6328 27.4648 16.543 27.9805 16.543C28.7617 16.543 29.3809 16.7402 29.8379 17.1348C30.2988 17.5254 30.5293 18.0762 30.5293 18.7871V21.5352C30.5332 22.1367 30.6172 22.5918 30.7812 22.9004V23H29.0703ZM27.6699 21.8223C27.9199 21.8223 28.1504 21.7676 28.3613 21.6582C28.5723 21.5449 28.7285 21.3945 28.8301 21.207V20.1172H28.1973C27.3496 20.1172 26.8984 20.4102 26.8438 20.9961L26.8379 21.0957C26.8379 21.3066 26.9121 21.4805 27.0605 21.6172C27.209 21.7539 27.4121 21.8223 27.6699 21.8223ZM33.6172 23H31.918V14H33.6172V23ZM40.4141 14.4688L42.6055 20.6562L44.7852 14.4688H47.0938V23H45.3301V20.668L45.5059 16.6426L43.2031 23H41.9961L39.6992 16.6484L39.875 20.668V23H38.1172V14.4688H40.4141ZM48.2539 19.7715C48.2539 19.1426 48.375 18.582 48.6172 18.0898C48.8594 17.5977 49.207 17.2168 49.6602 16.9473C50.1172 16.6777 50.6465 16.543 51.248 16.543C52.1035 16.543 52.8008 16.8047 53.3398 17.3281C53.8828 17.8516 54.1855 18.5625 54.248 19.4609L54.2598 19.8945C54.2598 20.8672 53.9883 21.6484 53.4453 22.2383C52.9023 22.8242 52.1738 23.1172 51.2598 23.1172C50.3457 23.1172 49.6152 22.8242 49.0684 22.2383C48.5254 21.6523 48.2539 20.8555 48.2539 19.8477V19.7715ZM49.9473 19.8945C49.9473 20.4961 50.0605 20.957 50.2871 21.2773C50.5137 21.5938 50.8379 21.752 51.2598 21.752C51.6699 21.752 51.9902 21.5957 52.2207 21.2832C52.4512 20.9668 52.5664 20.4629 52.5664 19.7715C52.5664 19.1816 52.4512 18.7246 52.2207 18.4004C51.9902 18.0762 51.666 17.9141 51.248 17.9141C50.834 17.9141 50.5137 18.0762 50.2871 18.4004C50.0605 18.7207 49.9473 19.2188 49.9473 19.8945ZM61.0156 19.8887C61.0156 20.9043 60.7988 21.6973 60.3652 22.2676C59.9316 22.834 59.3262 23.1172 58.5488 23.1172C57.8613 23.1172 57.3125 22.8535 56.9023 22.3262L56.8262 23H55.3027V14H56.9961V17.2285C57.3867 16.7715 57.9004 16.543 58.5371 16.543C59.3105 16.543 59.916 16.8281 60.3535 17.3984C60.7949 17.9648 61.0156 18.7637 61.0156 19.7949V19.8887ZM59.3223 19.7656C59.3223 19.125 59.2207 18.6582 59.0176 18.3652C58.8145 18.0684 58.5117 17.9199 58.1094 17.9199C57.5703 17.9199 57.1992 18.1406 56.9961 18.582V21.084C57.2031 21.5293 57.5781 21.752 58.1211 21.752C58.668 21.752 59.0273 21.4824 59.1992 20.9434C59.2812 20.6855 59.3223 20.293 59.3223 19.7656ZM63.8516 23H62.1523V16.6602H63.8516V23ZM62.0527 15.0195C62.0527 14.7656 62.1367 14.5566 62.3047 14.3926C62.4766 14.2285 62.709 14.1465 63.002 14.1465C63.291 14.1465 63.5215 14.2285 63.6934 14.3926C63.8652 14.5566 63.9512 14.7656 63.9512 15.0195C63.9512 15.2773 63.8633 15.4883 63.6875 15.6523C63.5156 15.8164 63.2871 15.8984 63.002 15.8984C62.7168 15.8984 62.4863 15.8164 62.3105 15.6523C62.1387 15.4883 62.0527 15.2773 62.0527 15.0195ZM67.0391 23H65.3398V14H67.0391V23ZM75.9629 20.7617C75.9629 20.4297 75.8457 20.1758 75.6113 20C75.377 19.8203 74.9551 19.6328 74.3457 19.4375C73.7363 19.2383 73.2539 19.043 72.8984 18.8516C71.9297 18.3281 71.4453 17.623 71.4453 16.7363C71.4453 16.2754 71.5742 15.8652 71.832 15.5059C72.0938 15.1426 72.4668 14.8594 72.9512 14.6562C73.4395 14.4531 73.9863 14.3516 74.5918 14.3516C75.2012 14.3516 75.7441 14.4629 76.2207 14.6855C76.6973 14.9043 77.0664 15.2148 77.3281 15.6172C77.5938 16.0195 77.7266 16.4766 77.7266 16.9883H75.9688C75.9688 16.5977 75.8457 16.2949 75.5996 16.0801C75.3535 15.8613 75.0078 15.752 74.5625 15.752C74.1328 15.752 73.7988 15.8438 73.5605 16.0273C73.3223 16.207 73.2031 16.4453 73.2031 16.7422C73.2031 17.0195 73.3418 17.252 73.6191 17.4395C73.9004 17.627 74.3125 17.8027 74.8555 17.9668C75.8555 18.2676 76.584 18.6406 77.041 19.0859C77.498 19.5312 77.7266 20.0859 77.7266 20.75C77.7266 21.4883 77.4473 22.0684 76.8887 22.4902C76.3301 22.9082 75.5781 23.1172 74.6328 23.1172C73.9766 23.1172 73.3789 22.998 72.8398 22.7598C72.3008 22.5176 71.8887 22.1875 71.6035 21.7695C71.3223 21.3516 71.1816 20.8672 71.1816 20.3164H72.9453C72.9453 21.2578 73.5078 21.7285 74.6328 21.7285C75.0508 21.7285 75.377 21.6445 75.6113 21.4766C75.8457 21.3047 75.9629 21.0664 75.9629 20.7617ZM82.6074 22.3555C82.1895 22.8633 81.6113 23.1172 80.873 23.1172C80.1934 23.1172 79.6738 22.9219 79.3145 22.5312C78.959 22.1406 78.7773 21.5684 78.7695 20.8145V16.6602H80.4629V20.7559C80.4629 21.416 80.7637 21.7461 81.3652 21.7461C81.9395 21.7461 82.334 21.5469 82.5488 21.1484V16.6602H84.248V23H82.6543L82.6074 22.3555ZM87.3125 23H85.6133V14H87.3125V23ZM90.7402 15.1016V16.6602H91.8242V17.9023H90.7402V21.0664C90.7402 21.3008 90.7852 21.4688 90.875 21.5703C90.9648 21.6719 91.1367 21.7227 91.3906 21.7227C91.5781 21.7227 91.7441 21.709 91.8887 21.6816V22.9648C91.5566 23.0664 91.2148 23.1172 90.8633 23.1172C89.6758 23.1172 89.0703 22.5176 89.0469 21.3184V17.9023H88.1211V16.6602H89.0469V15.1016H90.7402ZM95.6855 23.1172C94.7559 23.1172 93.998 22.832 93.4121 22.2617C92.8301 21.6914 92.5391 20.9316 92.5391 19.9824V19.8184C92.5391 19.1816 92.6621 18.6133 92.9082 18.1133C93.1543 17.6094 93.502 17.2227 93.9512 16.9531C94.4043 16.6797 94.9199 16.543 95.498 16.543C96.3652 16.543 97.0469 16.8164 97.543 17.3633C98.043 17.9102 98.293 18.6855 98.293 19.6895V20.3809H94.2559C94.3105 20.7949 94.4746 21.127 94.748 21.377C95.0254 21.627 95.375 21.752 95.7969 21.752C96.4492 21.752 96.959 21.5156 97.3262 21.043L98.1582 21.9746C97.9043 22.334 97.5605 22.6152 97.127 22.8184C96.6934 23.0176 96.2129 23.1172 95.6855 23.1172ZM95.4922 17.9141C95.1562 17.9141 94.8828 18.0273 94.6719 18.2539C94.4648 18.4805 94.332 18.8047 94.2734 19.2266H96.6289V19.0918C96.6211 18.7168 96.5195 18.4277 96.3242 18.2246C96.1289 18.0176 95.8516 17.9141 95.4922 17.9141ZM100.818 16.6602L100.871 17.3926C101.324 16.8262 101.932 16.543 102.693 16.543C103.365 16.543 103.865 16.7402 104.193 17.1348C104.521 17.5293 104.689 18.1191 104.697 18.9043V23H103.004V18.9453C103.004 18.5859 102.926 18.3262 102.77 18.166C102.613 18.002 102.354 17.9199 101.99 17.9199C101.514 17.9199 101.156 18.123 100.918 18.5293V23H99.2246V16.6602H100.818ZM105.74 19.7832C105.74 18.8105 105.971 18.0273 106.432 17.4336C106.896 16.8398 107.521 16.543 108.307 16.543C109.002 16.543 109.543 16.7812 109.93 17.2578L110 16.6602H111.535V22.7891C111.535 23.3438 111.408 23.8262 111.154 24.2363C110.904 24.6465 110.551 24.959 110.094 25.1738C109.637 25.3887 109.102 25.4961 108.488 25.4961C108.023 25.4961 107.57 25.4023 107.129 25.2148C106.688 25.0312 106.354 24.793 106.127 24.5L106.877 23.4688C107.299 23.9414 107.811 24.1777 108.412 24.1777C108.861 24.1777 109.211 24.0566 109.461 23.8145C109.711 23.5762 109.836 23.2363 109.836 22.7949V22.4551C109.445 22.8965 108.932 23.1172 108.295 23.1172C107.533 23.1172 106.916 22.8203 106.443 22.2266C105.975 21.6289 105.74 20.8379 105.74 19.8535V19.7832ZM107.434 19.9062C107.434 20.4805 107.549 20.9316 107.779 21.2598C108.01 21.584 108.326 21.7461 108.729 21.7461C109.244 21.7461 109.613 21.5527 109.836 21.166V18.5C109.609 18.1133 109.244 17.9199 108.74 17.9199C108.334 17.9199 108.014 18.0859 107.779 18.418C107.549 18.75 107.434 19.2461 107.434 19.9062Z" fill="#F1EEE8"/>
</svg>
